<mxfile host="Electron" modified="2023-11-15T08:33:12.103Z" agent="Mozilla/5.0 (Macintosh; Intel Mac OS X 10_15_7) AppleWebKit/537.36 (KHTML, like Gecko) draw.io/21.2.8 Chrome/112.0.5615.165 Electron/24.2.0 Safari/537.36" etag="TFwgjWZeHkHOqTQOfyRh" version="21.2.8" type="device">
  <diagram name="Страница 1" id="b56nTUFWKLFzky5iG3-O">
    <mxGraphModel dx="1453" dy="1270" grid="1" gridSize="10" guides="1" tooltips="1" connect="1" arrows="1" fold="1" page="0" pageScale="1" pageWidth="827" pageHeight="1169" math="0" shadow="0">
      <root>
        <mxCell id="0" />
        <mxCell id="1" parent="0" />
        <mxCell id="P-KXroBEH44Tsiwpaicb-1" value="" style="ellipse;html=1;shape=startState;fillColor=#000000;strokeColor=default;fontSize=16;" vertex="1" parent="1">
          <mxGeometry x="-55" y="-50" width="30" height="30" as="geometry" />
        </mxCell>
        <mxCell id="P-KXroBEH44Tsiwpaicb-2" value="" style="edgeStyle=orthogonalEdgeStyle;html=1;verticalAlign=bottom;endArrow=classic;endSize=8;strokeColor=default;rounded=0;fontSize=12;curved=1;entryX=0.5;entryY=0;entryDx=0;entryDy=0;endFill=1;" edge="1" parent="1" source="P-KXroBEH44Tsiwpaicb-1">
          <mxGeometry relative="1" as="geometry">
            <mxPoint x="-40" y="10" as="targetPoint" />
          </mxGeometry>
        </mxCell>
        <mxCell id="P-KXroBEH44Tsiwpaicb-5" value="factorial(n)" style="text;html=1;align=center;verticalAlign=middle;resizable=0;points=[];autosize=1;strokeColor=none;fillColor=none;fontSize=16;" vertex="1" parent="1">
          <mxGeometry x="-80" y="-90" width="100" height="30" as="geometry" />
        </mxCell>
        <mxCell id="P-KXroBEH44Tsiwpaicb-7" value="" style="rhombus;whiteSpace=wrap;html=1;fontSize=16;rounded=0;arcSize=50;" vertex="1" parent="1">
          <mxGeometry x="-60" y="10" width="40" height="40" as="geometry" />
        </mxCell>
        <mxCell id="P-KXroBEH44Tsiwpaicb-8" value="&lt;div style=&quot;color: rgb(59, 59, 59); font-family: Menlo, Monaco, &amp;quot;Courier New&amp;quot;, monospace; font-size: 12px; line-height: 18px;&quot;&gt;n &lt;span style=&quot;color: #000000;&quot;&gt;*&lt;/span&gt; &lt;span style=&quot;color: #795e26;&quot;&gt;factorial&lt;/span&gt;(&lt;span style=&quot;color: #001080;&quot;&gt;n&lt;/span&gt;&lt;span style=&quot;color: #000000;&quot;&gt;-&lt;/span&gt;&lt;span style=&quot;color: #098658;&quot;&gt;1&lt;/span&gt;)&lt;/div&gt;" style="html=1;whiteSpace=wrap;fontSize=16;rounded=1;arcSize=50;" vertex="1" parent="1">
          <mxGeometry x="5" y="90" width="180" height="30" as="geometry" />
        </mxCell>
        <mxCell id="P-KXroBEH44Tsiwpaicb-9" value="[ n == 0 ]" style="text;html=1;align=center;verticalAlign=middle;resizable=0;points=[];autosize=1;strokeColor=none;fillColor=none;fontSize=16;" vertex="1" parent="1">
          <mxGeometry x="-160" width="90" height="30" as="geometry" />
        </mxCell>
        <mxCell id="P-KXroBEH44Tsiwpaicb-10" value="" style="edgeStyle=segmentEdgeStyle;endArrow=classic;html=1;curved=0;rounded=0;endSize=8;startSize=8;sourcePerimeterSpacing=0;targetPerimeterSpacing=0;fontSize=12;entryX=0.5;entryY=0;entryDx=0;entryDy=0;" edge="1" parent="1" target="P-KXroBEH44Tsiwpaicb-8">
          <mxGeometry width="140" relative="1" as="geometry">
            <mxPoint x="-20" y="30" as="sourcePoint" />
            <mxPoint x="170" y="-50" as="targetPoint" />
            <Array as="points">
              <mxPoint x="95" y="30" />
            </Array>
          </mxGeometry>
        </mxCell>
        <mxCell id="P-KXroBEH44Tsiwpaicb-11" value="" style="edgeStyle=segmentEdgeStyle;endArrow=classic;html=1;curved=0;rounded=0;endSize=8;startSize=8;sourcePerimeterSpacing=0;targetPerimeterSpacing=0;fontSize=12;exitX=0;exitY=0.5;exitDx=0;exitDy=0;" edge="1" parent="1" source="P-KXroBEH44Tsiwpaicb-7">
          <mxGeometry width="140" relative="1" as="geometry">
            <mxPoint x="-260" y="30" as="sourcePoint" />
            <mxPoint x="-160" y="90" as="targetPoint" />
            <Array as="points">
              <mxPoint x="-160" y="30" />
            </Array>
          </mxGeometry>
        </mxCell>
        <mxCell id="P-KXroBEH44Tsiwpaicb-12" value="return 1" style="html=1;whiteSpace=wrap;fontSize=16;rounded=1;arcSize=50;" vertex="1" parent="1">
          <mxGeometry x="-250" y="90" width="180" height="30" as="geometry" />
        </mxCell>
        <mxCell id="P-KXroBEH44Tsiwpaicb-13" value="[ else ]" style="text;html=1;align=center;verticalAlign=middle;resizable=0;points=[];autosize=1;strokeColor=none;fillColor=none;fontSize=16;" vertex="1" parent="1">
          <mxGeometry x="10" width="70" height="30" as="geometry" />
        </mxCell>
        <mxCell id="P-KXroBEH44Tsiwpaicb-14" value="" style="rhombus;whiteSpace=wrap;html=1;fontSize=16;rounded=0;arcSize=50;" vertex="1" parent="1">
          <mxGeometry x="-60" y="200" width="40" height="40" as="geometry" />
        </mxCell>
        <mxCell id="P-KXroBEH44Tsiwpaicb-16" value="" style="endArrow=none;html=1;rounded=0;fontSize=12;startSize=8;endSize=8;curved=1;entryX=0.5;entryY=1;entryDx=0;entryDy=0;" edge="1" parent="1" target="P-KXroBEH44Tsiwpaicb-12">
          <mxGeometry width="50" height="50" relative="1" as="geometry">
            <mxPoint x="-160" y="170" as="sourcePoint" />
            <mxPoint x="-110" y="150" as="targetPoint" />
          </mxGeometry>
        </mxCell>
        <mxCell id="P-KXroBEH44Tsiwpaicb-17" value="" style="endArrow=none;html=1;rounded=0;fontSize=12;startSize=8;endSize=8;curved=1;" edge="1" parent="1">
          <mxGeometry width="50" height="50" relative="1" as="geometry">
            <mxPoint x="-40" y="170" as="sourcePoint" />
            <mxPoint x="-160" y="170" as="targetPoint" />
          </mxGeometry>
        </mxCell>
        <mxCell id="P-KXroBEH44Tsiwpaicb-18" value="" style="endArrow=none;html=1;rounded=0;fontSize=12;startSize=8;endSize=8;curved=1;entryX=0.5;entryY=1;entryDx=0;entryDy=0;" edge="1" parent="1">
          <mxGeometry width="50" height="50" relative="1" as="geometry">
            <mxPoint x="94.74000000000001" y="170" as="sourcePoint" />
            <mxPoint x="94.74000000000001" y="120" as="targetPoint" />
          </mxGeometry>
        </mxCell>
        <mxCell id="P-KXroBEH44Tsiwpaicb-20" value="" style="endArrow=none;html=1;rounded=0;fontSize=12;startSize=8;endSize=8;curved=1;" edge="1" parent="1">
          <mxGeometry width="50" height="50" relative="1" as="geometry">
            <mxPoint x="95" y="170" as="sourcePoint" />
            <mxPoint x="-40" y="170" as="targetPoint" />
          </mxGeometry>
        </mxCell>
        <mxCell id="P-KXroBEH44Tsiwpaicb-21" value="" style="endArrow=classic;html=1;rounded=0;fontSize=12;startSize=8;endSize=8;curved=1;entryX=0.5;entryY=0;entryDx=0;entryDy=0;" edge="1" parent="1" target="P-KXroBEH44Tsiwpaicb-14">
          <mxGeometry width="50" height="50" relative="1" as="geometry">
            <mxPoint x="-40" y="170" as="sourcePoint" />
            <mxPoint y="150" as="targetPoint" />
          </mxGeometry>
        </mxCell>
        <mxCell id="P-KXroBEH44Tsiwpaicb-22" value="" style="endArrow=classic;html=1;rounded=0;fontSize=12;startSize=8;endSize=8;curved=1;entryX=0.5;entryY=0;entryDx=0;entryDy=0;" edge="1" parent="1">
          <mxGeometry width="50" height="50" relative="1" as="geometry">
            <mxPoint x="-40.38" y="240" as="sourcePoint" />
            <mxPoint x="-40.38" y="270" as="targetPoint" />
          </mxGeometry>
        </mxCell>
        <mxCell id="P-KXroBEH44Tsiwpaicb-24" value="" style="ellipse;html=1;shape=endState;fillColor=#000000;strokeColor=#000000;fontSize=16;" vertex="1" parent="1">
          <mxGeometry x="-55" y="270" width="30" height="30" as="geometry" />
        </mxCell>
        <mxCell id="P-KXroBEH44Tsiwpaicb-25" value="" style="ellipse;html=1;shape=startState;fillColor=#000000;strokeColor=default;fontSize=16;" vertex="1" parent="1">
          <mxGeometry x="369" y="-50" width="30" height="30" as="geometry" />
        </mxCell>
        <mxCell id="P-KXroBEH44Tsiwpaicb-26" value="" style="edgeStyle=orthogonalEdgeStyle;html=1;verticalAlign=bottom;endArrow=classic;endSize=8;strokeColor=default;rounded=0;fontSize=12;curved=1;entryX=0.5;entryY=0;entryDx=0;entryDy=0;endFill=1;" edge="1" source="P-KXroBEH44Tsiwpaicb-25" parent="1">
          <mxGeometry relative="1" as="geometry">
            <mxPoint x="384" y="10" as="targetPoint" />
          </mxGeometry>
        </mxCell>
        <mxCell id="P-KXroBEH44Tsiwpaicb-27" value="sinus(x, eps)" style="text;html=1;align=center;verticalAlign=middle;resizable=0;points=[];autosize=1;strokeColor=none;fillColor=none;fontSize=16;" vertex="1" parent="1">
          <mxGeometry x="330" y="-90" width="110" height="30" as="geometry" />
        </mxCell>
        <mxCell id="P-KXroBEH44Tsiwpaicb-28" value="sum = 0" style="html=1;whiteSpace=wrap;fontSize=16;rounded=1;arcSize=50;" vertex="1" parent="1">
          <mxGeometry x="334" y="10" width="100" height="30" as="geometry" />
        </mxCell>
        <mxCell id="P-KXroBEH44Tsiwpaicb-29" value="" style="edgeStyle=orthogonalEdgeStyle;html=1;verticalAlign=bottom;endArrow=classic;endSize=8;strokeColor=default;rounded=0;fontSize=12;curved=1;entryX=0.5;entryY=0;entryDx=0;entryDy=0;endFill=1;" edge="1" parent="1">
          <mxGeometry relative="1" as="geometry">
            <mxPoint x="384" y="70" as="targetPoint" />
            <mxPoint x="384" y="40" as="sourcePoint" />
          </mxGeometry>
        </mxCell>
        <mxCell id="P-KXroBEH44Tsiwpaicb-56" style="edgeStyle=none;curved=1;rounded=0;orthogonalLoop=1;jettySize=auto;html=1;exitX=0.5;exitY=1;exitDx=0;exitDy=0;entryX=0.5;entryY=0;entryDx=0;entryDy=0;fontSize=12;startSize=8;endSize=8;" edge="1" parent="1" source="P-KXroBEH44Tsiwpaicb-30" target="P-KXroBEH44Tsiwpaicb-31">
          <mxGeometry relative="1" as="geometry" />
        </mxCell>
        <mxCell id="P-KXroBEH44Tsiwpaicb-30" value="n = 0" style="html=1;whiteSpace=wrap;fontSize=16;rounded=1;arcSize=50;" vertex="1" parent="1">
          <mxGeometry x="334" y="70" width="100" height="30" as="geometry" />
        </mxCell>
        <mxCell id="P-KXroBEH44Tsiwpaicb-31" value="" style="rhombus;whiteSpace=wrap;html=1;fontSize=16;rounded=0;arcSize=50;" vertex="1" parent="1">
          <mxGeometry x="365" y="120" width="40" height="40" as="geometry" />
        </mxCell>
        <mxCell id="P-KXroBEH44Tsiwpaicb-32" style="edgeStyle=none;curved=1;rounded=0;orthogonalLoop=1;jettySize=auto;html=1;exitX=0.5;exitY=1;exitDx=0;exitDy=0;entryX=0.5;entryY=0;entryDx=0;entryDy=0;fontSize=12;startSize=8;endSize=8;" edge="1" parent="1" source="P-KXroBEH44Tsiwpaicb-33" target="P-KXroBEH44Tsiwpaicb-35">
          <mxGeometry relative="1" as="geometry">
            <mxPoint x="384.97" y="240" as="sourcePoint" />
          </mxGeometry>
        </mxCell>
        <mxCell id="P-KXroBEH44Tsiwpaicb-33" value="" style="rhombus;whiteSpace=wrap;html=1;fontSize=16;rounded=0;arcSize=50;" vertex="1" parent="1">
          <mxGeometry x="365" y="180" width="40" height="40" as="geometry" />
        </mxCell>
        <mxCell id="P-KXroBEH44Tsiwpaicb-34" style="edgeStyle=none;curved=1;rounded=0;orthogonalLoop=1;jettySize=auto;html=1;entryX=0.5;entryY=0;entryDx=0;entryDy=0;fontSize=12;startSize=8;endSize=8;" edge="1" parent="1" target="P-KXroBEH44Tsiwpaicb-33">
          <mxGeometry relative="1" as="geometry">
            <mxPoint x="385" y="160" as="sourcePoint" />
          </mxGeometry>
        </mxCell>
        <mxCell id="P-KXroBEH44Tsiwpaicb-35" value="&lt;div style=&quot;color: rgb(59, 59, 59); font-family: Menlo, Monaco, &amp;quot;Courier New&amp;quot;, monospace; font-size: 12px; line-height: 18px;&quot;&gt;term &lt;span style=&quot;color: #000000;&quot;&gt;=&lt;/span&gt; ((&lt;span style=&quot;color: #000000;&quot;&gt;-&lt;/span&gt;&lt;span style=&quot;color: #098658;&quot;&gt;1&lt;/span&gt;)&lt;span style=&quot;color: #000000;&quot;&gt;**&lt;/span&gt;&lt;span style=&quot;color: #001080;&quot;&gt;n&lt;/span&gt; &lt;span style=&quot;color: #000000;&quot;&gt;*&lt;/span&gt; &lt;span style=&quot;color: #001080;&quot;&gt;x&lt;/span&gt;&lt;span style=&quot;color: #000000;&quot;&gt;**&lt;/span&gt;(&lt;span style=&quot;color: #098658;&quot;&gt;2&lt;/span&gt;&lt;span style=&quot;color: #000000;&quot;&gt;*&lt;/span&gt;&lt;span style=&quot;color: #001080;&quot;&gt;n&lt;/span&gt;&lt;span style=&quot;color: #000000;&quot;&gt;+&lt;/span&gt;&lt;span style=&quot;color: #098658;&quot;&gt;1&lt;/span&gt;)) &lt;span style=&quot;color: #000000;&quot;&gt;/&lt;/span&gt; (&lt;span style=&quot;color: #795e26;&quot;&gt;factorial&lt;/span&gt;(&lt;span style=&quot;color: #098658;&quot;&gt;2&lt;/span&gt;&lt;span style=&quot;color: #000000;&quot;&gt;*&lt;/span&gt;&lt;span style=&quot;color: #001080;&quot;&gt;n&lt;/span&gt;&lt;span style=&quot;color: #000000;&quot;&gt;+&lt;/span&gt;&lt;span style=&quot;color: #098658;&quot;&gt;1&lt;/span&gt;) &lt;span style=&quot;color: #000000;&quot;&gt;*&lt;/span&gt; (&lt;span style=&quot;color: #098658;&quot;&gt;2&lt;/span&gt;&lt;span style=&quot;color: #000000;&quot;&gt;*&lt;/span&gt;&lt;span style=&quot;color: #001080;&quot;&gt;n&lt;/span&gt;&lt;span style=&quot;color: #000000;&quot;&gt;+&lt;/span&gt;&lt;span style=&quot;color: #098658;&quot;&gt;1&lt;/span&gt;))&lt;/div&gt;" style="html=1;whiteSpace=wrap;fontSize=16;rounded=1;arcSize=50;" vertex="1" parent="1">
          <mxGeometry x="264.97" y="240" width="240" height="50" as="geometry" />
        </mxCell>
        <mxCell id="P-KXroBEH44Tsiwpaicb-36" style="edgeStyle=none;curved=1;rounded=0;orthogonalLoop=1;jettySize=auto;html=1;exitX=0.5;exitY=1;exitDx=0;exitDy=0;entryX=0.5;entryY=0;entryDx=0;entryDy=0;fontSize=12;startSize=8;endSize=8;" edge="1" parent="1" target="P-KXroBEH44Tsiwpaicb-37">
          <mxGeometry relative="1" as="geometry">
            <mxPoint x="384.97" y="290" as="sourcePoint" />
          </mxGeometry>
        </mxCell>
        <mxCell id="P-KXroBEH44Tsiwpaicb-37" value="&lt;div style=&quot;color: rgb(59, 59, 59); font-family: Menlo, Monaco, &amp;quot;Courier New&amp;quot;, monospace; font-size: 12px; line-height: 18px;&quot;&gt;sum &lt;span style=&quot;color: #000000;&quot;&gt;+=&lt;/span&gt; &lt;span style=&quot;color: #001080;&quot;&gt;term&lt;/span&gt;&lt;/div&gt;" style="html=1;whiteSpace=wrap;fontSize=16;rounded=1;arcSize=50;" vertex="1" parent="1">
          <mxGeometry x="304.97" y="310" width="160" height="30" as="geometry" />
        </mxCell>
        <mxCell id="P-KXroBEH44Tsiwpaicb-38" value="" style="rhombus;whiteSpace=wrap;html=1;fontSize=16;rounded=0;arcSize=50;" vertex="1" parent="1">
          <mxGeometry x="364.97" y="360" width="40" height="40" as="geometry" />
        </mxCell>
        <mxCell id="P-KXroBEH44Tsiwpaicb-39" style="edgeStyle=none;curved=1;rounded=0;orthogonalLoop=1;jettySize=auto;html=1;entryX=0.5;entryY=0;entryDx=0;entryDy=0;fontSize=12;startSize=8;endSize=8;" edge="1" parent="1" target="P-KXroBEH44Tsiwpaicb-38">
          <mxGeometry relative="1" as="geometry">
            <mxPoint x="384.97" y="340" as="sourcePoint" />
          </mxGeometry>
        </mxCell>
        <mxCell id="P-KXroBEH44Tsiwpaicb-40" value="break" style="html=1;whiteSpace=wrap;fontSize=16;rounded=1;arcSize=50;" vertex="1" parent="1">
          <mxGeometry x="224.97" y="440" width="80" height="30" as="geometry" />
        </mxCell>
        <mxCell id="P-KXroBEH44Tsiwpaicb-41" value="[ | sum - term | &amp;lt; eps ]&amp;nbsp;" style="text;html=1;align=center;verticalAlign=middle;resizable=0;points=[];autosize=1;strokeColor=none;fillColor=none;fontSize=16;" vertex="1" parent="1">
          <mxGeometry x="209.97" y="350" width="180" height="30" as="geometry" />
        </mxCell>
        <mxCell id="P-KXroBEH44Tsiwpaicb-42" value="" style="edgeStyle=segmentEdgeStyle;endArrow=none;html=1;curved=0;rounded=0;endSize=8;startSize=8;sourcePerimeterSpacing=0;targetPerimeterSpacing=0;fontSize=12;endFill=0;" edge="1" parent="1">
          <mxGeometry width="140" relative="1" as="geometry">
            <mxPoint x="404.97" y="380" as="sourcePoint" />
            <mxPoint x="505" y="500" as="targetPoint" />
            <Array as="points">
              <mxPoint x="504.97" y="380" />
            </Array>
          </mxGeometry>
        </mxCell>
        <mxCell id="P-KXroBEH44Tsiwpaicb-43" value="" style="edgeStyle=segmentEdgeStyle;endArrow=classic;html=1;curved=0;rounded=0;endSize=8;startSize=8;sourcePerimeterSpacing=0;targetPerimeterSpacing=0;fontSize=12;" edge="1" parent="1">
          <mxGeometry width="140" relative="1" as="geometry">
            <mxPoint x="364.97" y="380" as="sourcePoint" />
            <mxPoint x="264.97" y="440" as="targetPoint" />
            <Array as="points">
              <mxPoint x="264.97" y="380" />
              <mxPoint x="264.97" y="440" />
            </Array>
          </mxGeometry>
        </mxCell>
        <mxCell id="P-KXroBEH44Tsiwpaicb-44" style="edgeStyle=none;curved=1;rounded=0;orthogonalLoop=1;jettySize=auto;html=1;fontSize=12;startSize=8;endSize=8;entryX=1;entryY=0.5;entryDx=0;entryDy=0;" edge="1" parent="1" target="P-KXroBEH44Tsiwpaicb-45">
          <mxGeometry relative="1" as="geometry">
            <mxPoint x="525" y="500" as="targetPoint" />
            <mxPoint x="505" y="500" as="sourcePoint" />
          </mxGeometry>
        </mxCell>
        <mxCell id="P-KXroBEH44Tsiwpaicb-45" value="" style="rhombus;whiteSpace=wrap;html=1;fontSize=16;rounded=0;arcSize=50;" vertex="1" parent="1">
          <mxGeometry x="365" y="480" width="40" height="40" as="geometry" />
        </mxCell>
        <mxCell id="P-KXroBEH44Tsiwpaicb-46" value="" style="edgeStyle=segmentEdgeStyle;endArrow=classic;html=1;curved=0;rounded=0;endSize=8;startSize=8;sourcePerimeterSpacing=0;targetPerimeterSpacing=0;fontSize=12;exitX=0.5;exitY=1;exitDx=0;exitDy=0;entryX=0;entryY=0.5;entryDx=0;entryDy=0;" edge="1" parent="1" source="P-KXroBEH44Tsiwpaicb-45" target="P-KXroBEH44Tsiwpaicb-31">
          <mxGeometry width="140" relative="1" as="geometry">
            <mxPoint x="380" y="550" as="sourcePoint" />
            <mxPoint x="165" y="140" as="targetPoint" />
            <Array as="points">
              <mxPoint x="385" y="550" />
              <mxPoint x="185" y="550" />
              <mxPoint x="185" y="140" />
            </Array>
          </mxGeometry>
        </mxCell>
        <mxCell id="P-KXroBEH44Tsiwpaicb-47" value="&amp;nbsp;[ else ]&amp;nbsp;" style="text;html=1;align=center;verticalAlign=middle;resizable=0;points=[];autosize=1;strokeColor=none;fillColor=none;fontSize=16;" vertex="1" parent="1">
          <mxGeometry x="425" y="160" width="80" height="30" as="geometry" />
        </mxCell>
        <mxCell id="P-KXroBEH44Tsiwpaicb-48" value="&amp;nbsp;[ True ]&amp;nbsp;" style="text;html=1;align=center;verticalAlign=middle;resizable=0;points=[];autosize=1;strokeColor=none;fillColor=none;fontSize=16;" vertex="1" parent="1">
          <mxGeometry x="390" y="210" width="80" height="30" as="geometry" />
        </mxCell>
        <mxCell id="P-KXroBEH44Tsiwpaicb-49" value="" style="edgeStyle=segmentEdgeStyle;endArrow=classic;html=1;curved=0;rounded=0;endSize=8;startSize=8;sourcePerimeterSpacing=0;targetPerimeterSpacing=0;fontSize=12;exitX=1;exitY=0.5;exitDx=0;exitDy=0;" edge="1" parent="1" source="P-KXroBEH44Tsiwpaicb-33">
          <mxGeometry width="140" relative="1" as="geometry">
            <mxPoint x="495" y="190" as="sourcePoint" />
            <mxPoint x="595" y="250" as="targetPoint" />
            <Array as="points">
              <mxPoint x="595" y="200" />
              <mxPoint x="595" y="250" />
            </Array>
          </mxGeometry>
        </mxCell>
        <mxCell id="P-KXroBEH44Tsiwpaicb-50" value="" style="edgeStyle=segmentEdgeStyle;endArrow=classic;html=1;curved=0;rounded=0;endSize=8;startSize=8;sourcePerimeterSpacing=0;targetPerimeterSpacing=0;fontSize=12;exitX=0;exitY=0.5;exitDx=0;exitDy=0;entryX=0;entryY=0.5;entryDx=0;entryDy=0;" edge="1" parent="1" source="P-KXroBEH44Tsiwpaicb-40" target="P-KXroBEH44Tsiwpaicb-33">
          <mxGeometry width="140" relative="1" as="geometry">
            <mxPoint x="165" y="450" as="sourcePoint" />
            <mxPoint x="305" y="510" as="targetPoint" />
            <Array as="points">
              <mxPoint x="205" y="455" />
              <mxPoint x="205" y="200" />
            </Array>
          </mxGeometry>
        </mxCell>
        <mxCell id="P-KXroBEH44Tsiwpaicb-51" value="" style="edgeStyle=none;curved=1;rounded=0;orthogonalLoop=1;jettySize=auto;html=1;fontSize=12;startSize=8;endSize=8;entryX=0.5;entryY=0;entryDx=0;entryDy=0;" edge="1" parent="1" source="P-KXroBEH44Tsiwpaicb-52" target="P-KXroBEH44Tsiwpaicb-55">
          <mxGeometry relative="1" as="geometry">
            <mxPoint x="595" y="300" as="targetPoint" />
          </mxGeometry>
        </mxCell>
        <mxCell id="P-KXroBEH44Tsiwpaicb-52" value="return sum" style="html=1;whiteSpace=wrap;fontSize=16;rounded=1;arcSize=50;" vertex="1" parent="1">
          <mxGeometry x="545" y="250" width="100" height="30" as="geometry" />
        </mxCell>
        <mxCell id="P-KXroBEH44Tsiwpaicb-55" value="" style="ellipse;html=1;shape=endState;fillColor=#000000;strokeColor=default;fontSize=16;" vertex="1" parent="1">
          <mxGeometry x="580" y="310" width="30" height="30" as="geometry" />
        </mxCell>
        <mxCell id="P-KXroBEH44Tsiwpaicb-57" value="" style="ellipse;html=1;shape=startState;fillColor=#000000;strokeColor=default;fontSize=16;" vertex="1" parent="1">
          <mxGeometry x="801" y="-50" width="30" height="30" as="geometry" />
        </mxCell>
        <mxCell id="P-KXroBEH44Tsiwpaicb-58" value="" style="edgeStyle=orthogonalEdgeStyle;html=1;verticalAlign=bottom;endArrow=classic;endSize=8;strokeColor=default;rounded=0;fontSize=12;curved=1;entryX=0.5;entryY=0;entryDx=0;entryDy=0;endFill=1;" edge="1" source="P-KXroBEH44Tsiwpaicb-57" parent="1">
          <mxGeometry relative="1" as="geometry">
            <mxPoint x="816" y="10" as="targetPoint" />
          </mxGeometry>
        </mxCell>
        <mxCell id="P-KXroBEH44Tsiwpaicb-59" value="__main__" style="text;html=1;align=center;verticalAlign=middle;resizable=0;points=[];autosize=1;strokeColor=none;fillColor=none;fontSize=16;" vertex="1" parent="1">
          <mxGeometry x="772" y="-90" width="90" height="30" as="geometry" />
        </mxCell>
        <mxCell id="P-KXroBEH44Tsiwpaicb-60" value="Ввод x" style="html=1;whiteSpace=wrap;fontSize=16;rounded=1;arcSize=50;" vertex="1" parent="1">
          <mxGeometry x="766" y="10" width="100" height="30" as="geometry" />
        </mxCell>
        <mxCell id="P-KXroBEH44Tsiwpaicb-61" value="" style="edgeStyle=orthogonalEdgeStyle;html=1;verticalAlign=bottom;endArrow=classic;endSize=8;strokeColor=default;rounded=0;fontSize=12;curved=1;entryX=0.5;entryY=0;entryDx=0;entryDy=0;endFill=1;" edge="1" parent="1">
          <mxGeometry relative="1" as="geometry">
            <mxPoint x="816" y="70" as="targetPoint" />
            <mxPoint x="816" y="40" as="sourcePoint" />
          </mxGeometry>
        </mxCell>
        <mxCell id="P-KXroBEH44Tsiwpaicb-62" value="Ввод eps" style="html=1;whiteSpace=wrap;fontSize=16;rounded=1;arcSize=50;" vertex="1" parent="1">
          <mxGeometry x="766" y="70" width="100" height="30" as="geometry" />
        </mxCell>
        <mxCell id="P-KXroBEH44Tsiwpaicb-63" value="" style="edgeStyle=orthogonalEdgeStyle;html=1;verticalAlign=bottom;endArrow=classic;endSize=8;strokeColor=default;rounded=0;fontSize=12;curved=1;entryX=0.5;entryY=0;entryDx=0;entryDy=0;endFill=1;" edge="1" parent="1">
          <mxGeometry relative="1" as="geometry">
            <mxPoint x="816" y="130" as="targetPoint" />
            <mxPoint x="816" y="100" as="sourcePoint" />
          </mxGeometry>
        </mxCell>
        <mxCell id="P-KXroBEH44Tsiwpaicb-66" style="edgeStyle=none;curved=1;rounded=0;orthogonalLoop=1;jettySize=auto;html=1;exitX=0.5;exitY=1;exitDx=0;exitDy=0;entryX=0.5;entryY=0;entryDx=0;entryDy=0;fontSize=12;startSize=8;endSize=8;" edge="1" parent="1" source="P-KXroBEH44Tsiwpaicb-64" target="P-KXroBEH44Tsiwpaicb-65">
          <mxGeometry relative="1" as="geometry" />
        </mxCell>
        <mxCell id="P-KXroBEH44Tsiwpaicb-64" value="Вывод sinux(x, eps)" style="html=1;whiteSpace=wrap;fontSize=16;rounded=1;arcSize=50;" vertex="1" parent="1">
          <mxGeometry x="720" y="130" width="192" height="30" as="geometry" />
        </mxCell>
        <mxCell id="P-KXroBEH44Tsiwpaicb-65" value="" style="ellipse;html=1;shape=endState;fillColor=#000000;strokeColor=#000000;fontSize=16;" vertex="1" parent="1">
          <mxGeometry x="801" y="190" width="30" height="30" as="geometry" />
        </mxCell>
      </root>
    </mxGraphModel>
  </diagram>
</mxfile>
